<svg xmlns="http://www.w3.org/2000/svg" xmlns:xlink="http://www.w3.org/1999/xlink" width="105.887" height="33.437" viewBox="0 0 105.887 33.437">
  <defs>
    <linearGradient id="linear-gradient" x1="0.024" y1="1" x2="0.974" y2="0.501" gradientUnits="objectBoundingBox">
      <stop offset="0" stop-color="#0bb5e2"/>
      <stop offset="1" stop-color="#17cec4"/>
    </linearGradient>
    <linearGradient id="linear-gradient-2" x1="0.067" y1="8.589" x2="0.933" y2="8.099" xlink:href="#linear-gradient"/>
    <linearGradient id="linear-gradient-3" x1="-0.163" y1="0.569" x2="0.94" y2="0.183" xlink:href="#linear-gradient"/>
    <linearGradient id="linear-gradient-4" x1="-0.116" y1="0.945" x2="1.057" y2="0.398" xlink:href="#linear-gradient"/>
    <linearGradient id="linear-gradient-5" x1="-0.118" y1="0.945" x2="1.057" y2="0.397" xlink:href="#linear-gradient"/>
    <linearGradient id="linear-gradient-6" x1="-0.055" y1="0.915" x2="1.123" y2="0.363" xlink:href="#linear-gradient"/>
    <linearGradient id="linear-gradient-7" x1="-0.083" y1="0.89" x2="1.115" y2="0.338" xlink:href="#linear-gradient"/>
    <linearGradient id="linear-gradient-8" x1="0.105" y1="-1.327" x2="0.889" y2="-3.999" xlink:href="#linear-gradient"/>
    <linearGradient id="linear-gradient-9" x1="-0.178" y1="0.472" x2="1.432" y2="0.207" xlink:href="#linear-gradient"/>
    <linearGradient id="linear-gradient-10" x1="0.083" y1="0.303" x2="0.902" y2="-2.058" xlink:href="#linear-gradient"/>
    <linearGradient id="linear-gradient-11" x1="0.099" y1="0.144" x2="0.957" y2="-0.53" xlink:href="#linear-gradient"/>
  </defs>
  <g id="Group_10" data-name="Group 10" transform="translate(-1156.113 -19)">
    <g id="logo" transform="translate(1156.113 19)">
      <path id="Path_1" data-name="Path 1" d="M16.548,18.471H6.458a4.956,4.956,0,0,1-1.429-.14,2.777,2.777,0,0,1-1.878-4.036,7.355,7.355,0,0,1,1.513-1.962C7.271,9.67,9.85,7.036,12.456,4.4a15.767,15.767,0,0,1,2.27-2.046,2.862,2.862,0,0,1,3.784-.084,10.949,10.949,0,0,1,1.149.841c4.344,3.531,8.66,7.091,13,10.622a1.2,1.2,0,0,1,.533,1.317,1.065,1.065,0,0,1-.813.757,1.36,1.36,0,0,1-1.233-.42c-2.859-2.354-5.746-4.709-8.6-7.035-1.373-1.121-2.719-2.242-4.092-3.335-1.4-1.093-2.186-1.121-3.475.14-2.3,2.27-4.54,4.568-6.783,6.867-.841.841-1.682,1.682-2.466,2.55-.336.364-.785.785-.533,1.317.28.561.9.476,1.429.476H27.451a3.583,3.583,0,0,1,3.672,2.663,4.094,4.094,0,0,1,.084,1.009V31.335a3.557,3.557,0,0,1-3.9,3.7H7.355A3.663,3.663,0,0,1,3.46,32.4a1.76,1.76,0,0,1-.084-.533c0-1.934-.028-3.868,0-5.8A1.071,1.071,0,0,1,4.469,25,1.077,1.077,0,0,1,5.59,26.066c.028,1.682,0,3.335,0,5.017,0,1.317.5,1.794,1.878,1.794H27.03c1.373,0,1.906-.476,1.906-1.794V20.376c0-1.4-.5-1.878-1.934-1.878C23.527,18.471,20.052,18.471,16.548,18.471Z" transform="translate(-2.821 -1.598)" fill="url(#linear-gradient)"/>
      <path id="Path_2" data-name="Path 2" d="M319.8,36.439a1.486,1.486,0,1,1,2.971,0,1.544,1.544,0,0,1-1.541,1.485A1.448,1.448,0,0,1,319.8,36.439Z" transform="translate(-230.96 -25.564)" fill="url(#linear-gradient-2)"/>
      <path id="Path_3" data-name="Path 3" d="M167.256,64.372c0-2.466-.028-4.933,0-7.4a2.879,2.879,0,0,1,2.13-3.027,3.345,3.345,0,0,1,.729-.14,38.963,38.963,0,0,1,6,.084,2.857,2.857,0,0,1,2.438,3.027c.056,2.522.056,5.045,0,7.6a3.266,3.266,0,0,1-3.419,3.2q-2.48.042-4.961,0c-.561,0-.785.14-.757.729.028,1.177,0,2.354.028,3.5,0,.392-.112.533-.533.561h-.953c-.757-.056-.757-.364-.757-1.682.056-2.13.056-4.288.056-6.446Zm2.214-3.083v3.139c0,.869.168,1.037,1.009,1.037h4.008c1.233,0,1.85-.533,1.878-1.766q.084-2.943,0-5.886a1.61,1.61,0,0,0-1.822-1.71H171.6c-1.513,0-2.13.617-2.158,2.13C169.47,59.215,169.47,60.252,169.47,61.289Z" transform="translate(-121.13 -39.119)" fill="url(#linear-gradient-3)"/>
      <path id="Path_4" data-name="Path 4" d="M230.079,60.735v3.7a3.02,3.02,0,0,1-2.943,3.251,30.278,30.278,0,0,1-5.746-.084,2.974,2.974,0,0,1-2.663-3.055,27.39,27.39,0,0,1,.056-3.391c.2-1.766,1.457-2.747,3.363-2.775q2.564-.042,5.129,0c.533,0,.645-.2.561-.673-.224-1.289-.645-1.682-1.962-1.682h-6.53c-.448,0-.645-.084-.645-.617.028-1.71,0-1.71,1.682-1.71h5.774a6.524,6.524,0,0,1,1.485.168,2.946,2.946,0,0,1,2.438,3v3.868Zm-5.605,4.681H226.3a1.408,1.408,0,0,0,1.57-1.485c.056-.9,0-1.794.028-2.691a.586.586,0,0,0-.645-.673h-4.765a1.381,1.381,0,0,0-1.429,1.233A7.753,7.753,0,0,0,221,63.93a1.608,1.608,0,0,0,1.654,1.485C223.268,65.443,223.885,65.415,224.474,65.415Z" transform="translate(-158.196 -39.097)" fill="url(#linear-gradient-4)"/>
      <path id="Path_5" data-name="Path 5" d="M351.433,60.735v3.7a3.02,3.02,0,0,1-2.943,3.251,30.278,30.278,0,0,1-5.746-.084,2.916,2.916,0,0,1-2.635-3,23.6,23.6,0,0,1,.056-3.447,3.079,3.079,0,0,1,3.363-2.775c1.682-.028,3.391-.028,5.073,0,.533,0,.7-.14.617-.673-.224-1.289-.645-1.682-1.962-1.682h-6.586c-.42,0-.589-.112-.589-.561,0-1.766-.028-1.766,1.738-1.766h5.689a6.524,6.524,0,0,1,1.485.168,2.9,2.9,0,0,1,2.41,3c.056,1.317.028,2.578.028,3.868Zm-5.213-.168h-2.27a1.478,1.478,0,0,0-1.6,1.345,7.449,7.449,0,0,0-.028,1.934,1.6,1.6,0,0,0,1.71,1.541h3.559a1.431,1.431,0,0,0,1.6-1.541c.028-.869,0-1.766,0-2.635,0-.476-.224-.673-.7-.673C347.789,60.595,347,60.567,346.22,60.567Z" transform="translate(-245.553 -39.097)" fill="url(#linear-gradient-5)"/>
      <path id="Path_6" data-name="Path 6" d="M116.8,60.659V57.408c.028-2.27.813-3.279,3.055-3.559a26.012,26.012,0,0,1,5.325,0c1.99.2,2.915,1.317,2.971,3.363a4.143,4.143,0,0,1-.084,1.962c-.28.5-1.121.561-1.71.813-2.13.9-4.288,1.766-6.418,2.663-.364.14-.925.14-.869.785.056.785.168,1.513,1.009,1.85a2.32,2.32,0,0,0,.981.14h6.53c.476,0,.645.14.589.589-.056.533.224,1.233-.112,1.57-.364.392-1.065.112-1.626.14q-2.817.042-5.633,0a8.61,8.61,0,0,1-1.485-.14,3.069,3.069,0,0,1-2.494-3.111v-.2c-.028-1.205-.028-2.41-.028-3.615Zm5.8-4.6c-.561,0-1.121-.028-1.682,0a1.65,1.65,0,0,0-1.822,1.71c-.056.757-.028,1.513-.028,2.242,0,.673.056.7.673.448,1.794-.757,3.615-1.513,5.409-2.242a.942.942,0,0,0,.252-1.71,1.742,1.742,0,0,0-1.205-.448Z" transform="translate(-84.855 -39.106)" fill="url(#linear-gradient-6)"/>
      <path id="Path_7" data-name="Path 7" d="M281.611,61.948v5.269c0,.42-.112.533-.533.533-1.682.028-1.682.028-1.682-1.654V58.249c0-1.682-.533-2.186-2.214-2.186H274.6c-1.373,0-1.99.617-1.99,1.99,0,3-.028,5.97,0,8.969,0,.589-.168.729-.729.729-1.485-.028-1.485,0-1.485-1.513V57.268c0-2.242.841-3.307,3.055-3.447a28.532,28.532,0,0,1,5.577.056,2.7,2.7,0,0,1,2.578,2.915v5.157Z" transform="translate(-195.406 -39.106)" fill="url(#linear-gradient-7)"/>
      <path id="Path_8" data-name="Path 8" d="M26.063,97.3h9.95c.5,0,.7.112.673.645-.056.841.14,1.71-.617,2.41a1.877,1.877,0,0,1-1.289.561H17.291a1.857,1.857,0,0,1-1.85-1.682c-.224-1.906-.224-1.906,1.626-1.906C20.093,97.3,23.064,97.3,26.063,97.3Z" transform="translate(-11.831 -70.478)" fill="url(#linear-gradient-8)"/>
      <path id="Path_9" data-name="Path 9" d="M315.711,62.056v6.586a7.533,7.533,0,0,1-.084,1.373c-.308,1.626-1.457,2.494-3.279,2.635h-.112c-1.878.056-1.906.056-1.766-1.85.028-.308.112-.42.448-.448,2.354-.14,2.607-.42,2.607-2.8V54.629c0-.561.14-.729.729-.729,1.513.028,1.513,0,1.513,1.513C315.711,57.6,315.711,59.842,315.711,62.056Z" transform="translate(-224.209 -39.241)" fill="url(#linear-gradient-9)"/>
      <path id="Path_10" data-name="Path 10" d="M47.667,87.057c-2.186,0-4.344-.028-6.53,0-.5,0-.673-.168-.645-.645a14.657,14.657,0,0,0,0-1.57c-.028-.476.14-.645.645-.645,2.438.028,4.849,0,7.287,0,1.429,0,2.887.028,4.316,0,1.233-.028,2.214.925,2.018,2.578-.056.392-.364.252-.589.28Z" transform="translate(-29.932 -61.048)" fill="url(#linear-gradient-10)"/>
      <path id="Path_11" data-name="Path 11" d="M20.335,83.618H18.317a.615.615,0,0,1-.673-.5,2.859,2.859,0,0,1,1.093-3.055A2.7,2.7,0,0,1,21.849,80a2.907,2.907,0,0,1,1.177,3.027.63.63,0,0,1-.729.589C21.652,83.59,20.98,83.618,20.335,83.618Z" transform="translate(-13.418 -57.692)" fill="url(#linear-gradient-11)"/>
    </g>
  </g>
</svg>
